<svg xmlns="http://www.w3.org/2000/svg" viewBox="0 0 150 13"><defs><style>.cls-1{fill:#003580;}</style></defs><g id="Ebene_2" data-name="Ebene 2"><g id="Ebene_1-2" data-name="Ebene 1"><path class="cls-1" d="M141.94.09,135.17,9.8a5.64,5.64,0,0,1-4,2.65v.28h7.5A5.25,5.25,0,0,0,143,10l7-10h-8.06Z"/><path class="cls-1" d="M73.81,7.78h3.66L75.55,4.21Zm6.5,5-1.46-2.56H72.53l-1.29,2.56H68.13L74.45,1.19h2.84l7.14,11.63Zm-74.45-5H9.61L7.69,4.21Zm6.69,5-1.47-2.56H4.58L3.2,12.82H0L6.5,1.19H9.43l7.33,11.63ZM31.41,6.5c1.37,0,2-.64,2-1.46s-.54-1.38-2-1.38H27.84V6.5Zm2.75,1.92,4.67,4.4H35.17a2.35,2.35,0,0,1-1.75-.64l-3.2-3.11c0-.1-.09-.1-.18-.1h-2.2v3.85H24.45V1.19h7.33c3.84,0,5.4,1.74,5.4,3.57A4.06,4.06,0,0,1,34.16,8.42ZM60.53,6.5c1.37,0,2-.64,2-1.46s-.55-1.38-2-1.38H57V6.5Zm2.75,1.92L68,12.82H64.29a2.31,2.31,0,0,1-1.74-.64L59.34,9.07c0-.1-.09-.1-.18-.1H57v3.85H53.57V1.19H60.9c3.84,0,5.4,1.74,5.4,3.57A4.06,4.06,0,0,1,63.28,8.42Zm52.65,4.4V1.19h11.82V3.66h-8.34v2h8.25V8.15h-8.25v2.11h8.34v2.47Zm-75.73,0V1.19H51.56V3.66h-8V6.59h7.69V9.07H43.5v3.75ZM113.83,5a12.48,12.48,0,0,0-5.59-1.38c-2.75,0-4.76,1.38-4.76,3.39s2.11,3.48,4.76,3.48a10.75,10.75,0,0,0,5.68-1.56v2.84A13.9,13.9,0,0,1,108.06,13c-4.67,0-8.33-2.38-8.33-6S103.48,1,108.06,1a14,14,0,0,1,5.77,1.1ZM96.15,12.82,88,6v6.87H85.17V1.19h2.47L95.7,8V1.19h2.84V12.82Zm-74.91,0H17.86V1.19h3.38Z"/></g></g></svg>