<svg xmlns="http://www.w3.org/2000/svg" viewBox="0 0 150 22.75"><defs><style>.cls-1{opacity:0.9;}.cls-2{fill:#003580;fill-rule:evenodd;}</style></defs><g id="Ebene_2" data-name="Ebene 2"><g id="Ebene_1-2" data-name="Ebene 1"><g class="cls-1"><path class="cls-2" d="M150,8.07A.28.28,0,0,0,150,8h0c0-.12,0-.25-.08-.36l0-.07A1.78,1.78,0,0,1,150,8.07ZM149.41,10A3.15,3.15,0,0,0,150,8.34v0a2.14,2.14,0,0,0-1-1.58,7.05,7.05,0,0,0-3.17-1.23,14.67,14.67,0,0,1-4.26,2.67c-2,.91-4.31,1.72-5.34,2.08-2.32.81-5.95,2-7.26,2.32h0a98.1,98.1,0,0,0,11.16,2.54,44.76,44.76,0,0,0,5.56-2.39A10.4,10.4,0,0,0,149.41,10Z"/><path class="cls-2" d="M89.33,1.76A90.19,90.19,0,0,0,105.06,5c7.64.73,15.5.57,20.06.56,4.29,0,9.68-.09,11.51-.14s5.08-.15,7.91,0A8,8,0,0,1,149,6.74c.82.65,1,1.16,1,1.6.08-.68-.48-1.77-1.26-3.14A9.75,9.75,0,0,0,146.11,2a14.12,14.12,0,0,0-6.37-1.8A90.62,90.62,0,0,0,130.16.1c-2,.07-16.19.63-18.08.72s-11.27.46-13.67.55S91.76,1.63,89.33,1.76Z"/><path class="cls-2" d="M0,22.56a1,1,0,0,0,.46-.9v-8.3A1,1,0,0,0,0,12.45H4c1.76,0,3.48.73,3.48,2.72a2.27,2.27,0,0,1-1.92,2.09,2.56,2.56,0,0,1,2.82,2.45c0,2.27-2.37,2.85-4,2.85Zm3.2-9.23a5.94,5.94,0,0,0-.65,0V16.9H3c1.21,0,2.38-.38,2.38-1.78S4.4,13.33,3.2,13.33Zm.25,4.48c-.29,0-.55,0-.9,0v3.73a6.77,6.77,0,0,0,1.35.11,1.84,1.84,0,0,0,2.05-2C6,18.16,4.72,17.81,3.45,17.81Zm8.8-4.48a3.05,3.05,0,0,0-.52.05v3.49a3.87,3.87,0,0,0,.48,0,1.77,1.77,0,0,0,2-1.86C14.18,13.78,13.36,13.33,12.25,13.33Zm5.09,9.29a4.25,4.25,0,0,1-1.18-.1c-.69-.2-1.64-1.75-2-2.36-.58-1-1.1-2.35-2.41-2.36v3.86a1,1,0,0,0,.48.9h-3a1,1,0,0,0,.48-.9v-8.3a1,1,0,0,0-.48-.91h3.66c1.59,0,3.58.61,3.58,2.52a2.52,2.52,0,0,1-2.8,2.43c2.1,0,3.33,5,5.66,5A6.66,6.66,0,0,1,17.34,22.62Zm2.08-.06a1,1,0,0,0,.51-.9v-8.3a1,1,0,0,0-.51-.91h3.11a1,1,0,0,0-.51.91v8.3a1,1,0,0,0,.51.9Zm6.74,0a1,1,0,0,0,.5-.9v-8H24.43a3.19,3.19,0,0,0-1.58.33l.7-1.49H31a8.36,8.36,0,0,0,1.8-.14,2.13,2.13,0,0,1-1.61,1.33c-.59,0-1.56-.05-2.4-.05v8.07a1,1,0,0,0,.5.9Zm7,0a1,1,0,0,0,.52-.9v-8.3a1,1,0,0,0-.52-.91h3.11a1,1,0,0,0-.51.91v8.3a1,1,0,0,0,.51.9Zm9.17-2.29c0-1.92-4.53-2.36-4.53-5.43,0-1.9,1.81-2.53,3.4-2.53a6.41,6.41,0,0,1,2.38.4l.12,1.89a2.7,2.7,0,0,0-2.33-1.44c-.74,0-1.5.37-1.5,1.2,0,2,4.61,2.49,4.61,5.4,0,2.11-1.85,3-3.71,3A6,6,0,0,1,37.61,22a7.28,7.28,0,0,1-.08-1,8.64,8.64,0,0,1,.1-1.24,3.26,3.26,0,0,0,2.9,2.09C41.54,21.81,42.29,21.37,42.29,20.27ZM52,22.56a1,1,0,0,0,.46-.9V17.9a20.73,20.73,0,0,0-2.14-.09,18.88,18.88,0,0,0-2.18.09v3.76a1,1,0,0,0,.45.9h-3a1,1,0,0,0,.47-.9v-8.3a1,1,0,0,0-.47-.91h3a1,1,0,0,0-.45.91v3.4a21.31,21.31,0,0,0,2.18.09c.85,0,1.6,0,2.14-.09v-3.4a1,1,0,0,0-.46-.91h3a1,1,0,0,0-.45.91v8.3a1,1,0,0,0,.45.9Zm14.1,0a.46.46,0,0,0,.19-.35,1.28,1.28,0,0,0-.1-.35s-.83-2.26-.93-2.52a15.1,15.1,0,0,0-1.91-.08,15.66,15.66,0,0,0-1.81.08l-1,2.47a1.91,1.91,0,0,0-.16.47c0,.15.13.23.24.28h-2a1.55,1.55,0,0,0,.69-.78l3.35-8.63a.5.5,0,0,0,0-.12.69.69,0,0,0-.37-.58h2.62l3.4,9.32a1.56,1.56,0,0,0,.69.79Zm-2.64-8.19-1.53,3.94a13,13,0,0,0,1.4.06,13.56,13.56,0,0,0,1.56-.06Zm6.05,8.19a1,1,0,0,0,.51-.9v-8.3a1,1,0,0,0-.51-.91h3.11a1,1,0,0,0-.51.91v8.3a1,1,0,0,0,.51.9Zm7.85-9.23a3.05,3.05,0,0,0-.52.05v3.49l.48,0a1.77,1.77,0,0,0,2-1.86C79.29,13.78,78.47,13.33,77.36,13.33Zm5.34,9.29a4.25,4.25,0,0,1-1.18-.1c-.69-.2-1.64-1.75-2-2.36-.58-1-1.34-2.36-2.66-2.36v3.86a1,1,0,0,0,.48.9h-3a1,1,0,0,0,.48-.9v-8.3a1,1,0,0,0-.48-.91H78c1.58,0,3.57.61,3.57,2.52A2.51,2.51,0,0,1,79,17.4c2.19.12,3.5,5,5.66,5A6.61,6.61,0,0,1,82.7,22.62Zm12.61-9.18-3.07,9.12a1.18,1.18,0,0,1-.64-.19,8.13,8.13,0,0,1-1-2L89.25,16.9l-2,5.66h-1l-3.43-9.15a1.8,1.8,0,0,0-.78-1h3a.48.48,0,0,0-.21.43,1.29,1.29,0,0,0,.09.35l2.23,6,2.39-6.82L92.2,19l2-5.94a1.08,1.08,0,0,0,.07-.33.37.37,0,0,0-.17-.3h2A1.78,1.78,0,0,0,95.31,13.44Zm3.67.93-1.53,3.94a13.11,13.11,0,0,0,1.4.06,13.47,13.47,0,0,0,1.56-.06Zm2.64,8.19a.46.46,0,0,0,.19-.35,1.84,1.84,0,0,0-.1-.35s-.83-2.26-.93-2.52a15.1,15.1,0,0,0-1.91-.08,15.66,15.66,0,0,0-1.81.08l-1,2.47a1.72,1.72,0,0,0-.17.47c0,.15.13.23.24.28h-2a1.47,1.47,0,0,0,.69-.78l3.35-8.63a.27.27,0,0,0,0-.12.7.7,0,0,0-.38-.58h2.62l3.4,9.32a1.56,1.56,0,0,0,.69.79Zm9.13-9-2.39,4.2v3.95a1,1,0,0,0,.45.9h-3a1.06,1.06,0,0,0,.44-.9v-4l-2.08-3.34c-.18-.31-1.06-1.76-2.11-1.76a6.7,6.7,0,0,1,1.75-.27,1.93,1.93,0,0,1,2.06,1l1.93,3c.16-.3,1.69-2.95,1.69-2.95a2.24,2.24,0,0,0,.31-.66.37.37,0,0,0-.21-.34h2.14A2.62,2.62,0,0,0,110.75,13.51Zm5.6,6.76c0-1.92-4.53-2.36-4.53-5.43,0-1.9,1.81-2.53,3.39-2.53a6.42,6.42,0,0,1,2.39.4l.11,1.89a2.69,2.69,0,0,0-2.32-1.44c-.74,0-1.5.37-1.5,1.2,0,2,4.61,2.49,4.61,5.4,0,2.11-1.84,3-3.71,3a6,6,0,0,1-3.12-.75,6.07,6.07,0,0,1-.08-1,8.64,8.64,0,0,1,.1-1.24,3.24,3.24,0,0,0,2.9,2.09C115.6,21.81,116.35,21.37,116.35,20.27Z"/></g></g></g></svg>