<svg xmlns="http://www.w3.org/2000/svg" viewBox="0 0 65.65 45.19"><defs><style>.cls-1{fill:#003580;fill-rule:evenodd;}</style></defs><g id="Ebene_2" data-name="Ebene 2"><g id="Ebene_1-2" data-name="Ebene 1"><path class="cls-1" d="M36.85,2.67A4,4,0,0,0,36,5.08v7.57a2.83,2.83,0,0,1-.61,1.57c-.19.19-1.36,1.25-1.46,1.36h.66c.22-.2,2.46-2.19,2.7-2.46a3.92,3.92,0,0,0,1-2.61V3.24a2.77,2.77,0,0,1,.77-2c.27-.3,1.15-1,1.31-1.21l-.7,0C39.56.19,37.08,2.43,36.85,2.67ZM31.29,30.22,34,32.62h1.84a6.75,6.75,0,0,0,4.71-1.93,5.67,5.67,0,0,0,1.55-4.07V22.68a3.15,3.15,0,0,0-1.07-2.32c-.12-.13-.92-.88-.92-.88v3l1.05,1.09c.82.87.81,2.45-1.77,5a5.23,5.23,0,0,1-3.52,1.66Z"/><path class="cls-1" d="M38.94,14.05a3,3,0,0,0-.6,1.82v1.49h1.51a2.3,2.3,0,0,0,1.53-.82s0-1.48,0-1.48a4,4,0,0,0,.81.85c.15-.2,1.53-1.86,2.68-1.87,1.93,0,1.49,2.41.71,3.19l-1.75,1.62c-.91.87-2.46.45-2.46-1.78,0,0-1.67,1.58-1.92,1.79S38.34,20,38.34,20v3.92A3.84,3.84,0,0,1,37.2,27c-.2.22-2.32,2.15-2.6,2.36l-.7,0s1.24-1.13,1.49-1.39A2.62,2.62,0,0,0,36,26.11c0-.25,0-6.18,0-6.18H26.32c-3.35,0-4.07-3.72-4.09-4.72,0-.29,0-3.27,0-3.73a2.46,2.46,0,0,0-1-2h.95c.11,0,.7.28.7,2.57,0,0,0,2.65,0,2.8a2.46,2.46,0,0,0,2.25,2.48H36a4.3,4.3,0,0,1,.82-2c.3-.33,2.65-2.47,2.91-2.68h.7C40.32,12.77,39.19,13.79,38.94,14.05Zm3.58,2.24a8.61,8.61,0,0,0,.94,1.08c1.17.95,1.73-.07.94-1.15C44.09,15.79,42.88,15.91,42.52,16.29Z"/><path class="cls-1" d="M30.81,23.33c0,.53-1.69,1.93-1.78,2-.13-.57-.55-1.2-1.81-2.46l1.85-1.84C30.3,22.3,30.81,22.56,30.81,23.33ZM34,2.2c.37.37,1.16,1.37.68,1.85L33.62,5.14c0-.24-.65-.82-.65-.82s0,1.78,0,2c0,.8-.32,1-.32,1a5.34,5.34,0,0,1,1.49,3.37v1.94a1.36,1.36,0,0,1-.37,1c-.13.15-1.51,1.53-1.72,1.72a1.62,1.62,0,0,1-1.13.42H25.8c-.81,0-1.64-.63-1.64-1.26,0-.16,0-1.9,0-1.9a1.39,1.39,0,0,0,1.18.65,2.06,2.06,0,0,0,1.17-.54l3.87-4.05A31.09,31.09,0,0,0,27.5,6.3a1,1,0,0,0-1.42.6,13.06,13.06,0,0,0,0,3.87L24.67,9.36a2,2,0,0,1,.13-2.54,3.72,3.72,0,0,1,2.45-1.27h2a5.37,5.37,0,0,1,2.88,1.36.86.86,0,0,0,.22-.47c0-.7,0-2.6,0-2.6-1-1-1.17-2.1-.68-2.59L32.94,0A3.35,3.35,0,0,0,34,2.2ZM27.58,12.48a4.25,4.25,0,0,1-1.06.95h5.76c1.57,0,1.26-1,1-1.46A22.73,22.73,0,0,0,30.87,9.1Z"/><path class="cls-1" d="M21,17.73h-1a2.27,2.27,0,0,1,1,2v4.61a5.76,5.76,0,0,0,5.47,5.76h2.51A3.61,3.61,0,0,0,32,28.93c.33-.3.77-.79.93-1A3.2,3.2,0,0,0,34,25.36v-1.5a2.75,2.75,0,0,0-1.12-2.21L32,20.8v3.09s.63.67.91.89A1.59,1.59,0,0,1,32,27.59h-5.5a4.88,4.88,0,0,1-4.77-4.8V20.3C21.71,17.73,21,17.73,21,17.73Z"/><path class="cls-1" d="M27,23.34c0,.52-1.68,1.93-1.78,2-.12-.56-.55-1.19-1.81-2.45l1.85-1.84C26.54,22.3,27,22.57,27,23.34ZM7.76,43.81H4.81c-.93,0-.85-.77-.94-1.43V38.14s.65,0,1.38,0a5.26,5.26,0,0,1,2.83.44,3.06,3.06,0,0,0-2.83-1.71H3.87V35.49A3.7,3.7,0,0,0,3.59,34H5.53c1.69,0,3,0,4.35.88,0,0-.26-2.24-3.52-2.24H0a3.81,3.81,0,0,1,1.07,2.87l0,7.72c0,1.93.78,2,.78,2H8.15a1.73,1.73,0,0,0,1.92-1.56l0-.74S9.64,43.81,7.76,43.81Zm16.7-.65v-5.4c0-2.09-1.71-2.65-3-2.65a2.57,2.57,0,0,0-2.4,1.9A2.82,2.82,0,0,0,16.3,35.1,2.67,2.67,0,0,0,13.75,37s-.05-1.88-1.69-1.88h-1.6s.93.38.93,2v6c0,2,.79,2,.79,2h2.64a2.61,2.61,0,0,1-1-2V37.83a1.49,1.49,0,0,1,1.57-1,1.46,1.46,0,0,1,1.34,1.43v4.93c0,2,.78,2,.78,2h2.66a2.64,2.64,0,0,1-1-2V37.82a1.49,1.49,0,0,1,2.9.41v4.93c0,2,.79,2,.79,2h2.65A2.58,2.58,0,0,1,24.46,43.16Zm4.63,0a2.56,2.56,0,0,0,1,2H27.47s-.81,0-.81-2h0v-6c0-1.58-.92-2-.92-2h1.6c.57,0,1.74,0,1.74,2.24v5.74Zm8.14-7.23a1.34,1.34,0,0,0-1.36-.72c-1.65,0-2.06,2-2.06,2-.13-1.56-.55-2-1.72-2h-1.6s.92.39.92,2v6c0,2,.8,2,.8,2h2.64a2.54,2.54,0,0,1-1-2V38.22a1.44,1.44,0,0,1,.65-1,2.08,2.08,0,0,1,2.74.4Zm12.32.36a3.35,3.35,0,0,1,1.56.39V35.16H48.9V32.87a8.1,8.1,0,0,1-1.78,2,15.13,15.13,0,0,1-2.32,1.38l1.67,0v7c0,1.93.81,1.93.81,1.93h2.64a2.52,2.52,0,0,1-1-2V36.28Zm8,3c-1.48,1.55-2.64,1.31-3.57,2.44a2.72,2.72,0,0,0,1.32,2.09,2.3,2.3,0,0,0,3.09-1v1.61s-.67.79-2.83.79c-2.59,0-4.37-2-4.37-4.81s1.45-5.24,4.19-5.26S59.53,37.26,57.58,39.3ZM56,38.67c.44-.81.78-2.87-.72-2.76-1.73.13-1.4,4.75-1.4,4.75C54.42,40,55.29,39.9,56,38.67Zm-28.1-4.32a1.21,1.21,0,1,0-1.23-1.2A1.22,1.22,0,0,0,27.86,34.35ZM40,44a1.19,1.19,0,0,1-1-1.27c0-2.49,2.05-2.84,2.6-3.51v4.21A1.79,1.79,0,0,1,40,44Zm1.56-5.74c-.62,1.08-5.4,1.31-4.67,5a2.21,2.21,0,0,0,2.5,1.9A2.39,2.39,0,0,0,41.58,44c.18,1.12.74,1.18.74,1.18H45a2.55,2.55,0,0,1-1-2V37.54c0-1.34-1.49-2.39-3.07-2.39a4.34,4.34,0,0,0-2.48.74v1.74a2.21,2.21,0,0,1,1.92-1.38c1.35,0,1.44.67,1.44,1A1.46,1.46,0,0,1,41.54,38.29Zm21.89,4.16a1.78,1.78,0,0,1-2,1.64,2.25,2.25,0,0,1-1.93-1.41v1.78a4.62,4.62,0,0,0,2.51.71,3.47,3.47,0,0,0,3.6-3.28A3,3,0,0,0,65,40.15a9.18,9.18,0,0,0-2.59-1.93,1.69,1.69,0,0,1-.76-1c0-.34.15-1,1.5-1a2.23,2.23,0,0,1,1.87,1.38V35.89a4.34,4.34,0,0,0-2.53-.8c-1.58,0-3,1-3,2.39A3.14,3.14,0,0,0,61,40.14a12,12,0,0,0,1.36.86A1.72,1.72,0,0,1,63.43,42.45Z"/></g></g></svg>