<svg xmlns="http://www.w3.org/2000/svg" viewBox="0 0 69.88 41.36"><defs><style>.cls-1{fill:#003580;fill-rule:evenodd;}</style></defs><g id="Ebene_2" data-name="Ebene 2"><g id="Ebene_1-2" data-name="Ebene 1"><path class="cls-1" d="M36,4.74v2H33.35v-2h-2V2.06h2V0H36V2.06h2.06V4.74ZM23.32,7.23a3.74,3.74,0,0,1,1.41,1.41,3.86,3.86,0,1,1-6.67,0,3.74,3.74,0,0,1,1.41-1.41,3.82,3.82,0,0,1,3.85,0Zm8.78,0a3.84,3.84,0,0,1,1.41,5.26,3.86,3.86,0,0,1-6.68-3.85,3.81,3.81,0,0,1,1.41-1.41,3.84,3.84,0,0,1,3.86,0Zm8.77,0a3.67,3.67,0,0,1,1.41,1.41,3.82,3.82,0,0,1,0,3.85,3.74,3.74,0,0,1-1.41,1.41,3.85,3.85,0,0,1-5.26-5.26A3.74,3.74,0,0,1,37,7.23a3.82,3.82,0,0,1,3.85,0Zm8.78,0a3.84,3.84,0,0,1,1.41,5.26,3.86,3.86,0,0,1-6.68-3.85,3.85,3.85,0,0,1,5.27-1.41ZM47.8,19.66V15.13H21.53v4.53ZM0,23.78H6.7v6l5.75-6h7.11l-7.71,8,9.24,9.53H12.32l-5.62-6v6H0Zm21.68,0h6.71V36.47H39v4.89H21.68Zm19.09,0H52.13L55.32,33l3.19-9.17H69.88V41.36h-6.7V28.56l-4.46,12.8h-6.8l-4.45-12.8v12.8h-6.7Z"/></g></g></svg>