<svg xmlns="http://www.w3.org/2000/svg" viewBox="0 0 140 23.95"><defs><style>.cls-1{fill:#003580;}</style></defs><g id="Ebene_2" data-name="Ebene 2"><g id="Ebene_1-2" data-name="Ebene 1"><path class="cls-1" d="M23.92,12A12,12,0,1,1,12.15,0,11.94,11.94,0,0,1,23.92,12ZM1.23,12A10.72,10.72,0,1,0,11.86,1.26,10.68,10.68,0,0,0,1.23,12Zm8.09-.49-.15.29a17.12,17.12,0,0,1-2.6-1l-.15.27.44.23a5.6,5.6,0,0,0,2.89,1,3.85,3.85,0,0,0,3.77-2.77A21,21,0,0,1,17.7,9.2,32.18,32.18,0,0,1,22,9.46l-.41.5a30.26,30.26,0,0,0-3.07-.18c-1.19,0-1.89,0-2.3,0l-.18.44c1-.06,1.32-.06,2.08-.06,1.31,0,2.33.06,3.18.12l-.41.55c-1.52,0-2.19-.08-3.33-.08-.61,0-1.08,0-1.81.05l-.2.44c.64-.06,1.54-.08,2.45-.08s2,0,2.57.05l-.41.53c-.44,0-1.26,0-1.9,0a27.15,27.15,0,0,0-3,.15l-.2.38a29.48,29.48,0,0,1,3.33-.18,12.63,12.63,0,0,1,1.46.06l-.47.55c-.82-.06-1.08-.06-1.4-.06a9.84,9.84,0,0,0-5.23,1.17,8.43,8.43,0,0,0,5.67,2.31c.17,0,.26,0,.7,0l-1,1c-5.41-1.43-6.37-1.81-11.34-4.76A24,24,0,0,0,2,10.08l.17-.62a12.81,12.81,0,0,1,1.58.47L4,9.26Zm118.85,5.34c0-1.72,1.11-3,3.3-3.56.35-.09,1.46-.35,3.36-.67.79-.18,1.11-.41,1.11-1s-.67-1-1.66-1c-1.2,0-2,.59-2,1.58H128.9c0-2.6,2-4.15,5.46-4.15,3.57,0,5.29,1.49,5.29,4.5v5.87c0,1,0,1,.35,1.6h-3.51l-.2-1a5.07,5.07,0,0,1-3.71,1.43c-2.57,0-4.41-1.52-4.41-3.59ZM135,14.78a13.64,13.64,0,0,0-1.37.29c-1.22.32-1.81.82-1.81,1.55s.56,1.16,1.52,1.16c1.84,0,2.69-.81,2.69-2.51v-.79C135.59,14.63,135.41,14.63,135,14.78Zm-18.8,1.37h3.68v.15c0,1,.79,1.54,2,1.54,1.08,0,1.75-.41,1.75-1.05s-.61-1.08-2.07-1.31l-1.2-.21c-2.71-.46-3.88-1.46-3.88-3.27,0-2.51,2.07-4,5.49-4,2.39,0,3.88.64,4.64,2.05a3.57,3.57,0,0,1,.47,2h-3.5c-.09-1.08-.56-1.49-1.7-1.49-.93,0-1.52.35-1.52,1s.56.87,1.81,1.08l1.29.23c2.71.47,4,1.63,4,3.62,0,2.42-2,4-5.31,4C118.33,20.44,116.23,18.92,116.23,16.15Zm-24.65.7c0-1.72,1.14-3,3.33-3.56.35-.09,1.46-.32,3.33-.67.82-.18,1.14-.41,1.14-1s-.67-1-1.7-1c-1.19,0-1.92.56-2,1.58H92.31c0-2.6,2-4.15,5.43-4.15,3.56,0,5.35,1.49,5.35,4.5v5.87a2.51,2.51,0,0,0,.29,1.6H99.9l-.2-1A5.06,5.06,0,0,1,96,20.44C93.45,20.44,91.58,18.92,91.58,16.85Zm6.89-2.07c-.46.08-.87.2-1.37.29-1.23.32-1.81.82-1.81,1.55s.58,1.16,1.52,1.16c1.78,0,2.66-.81,2.66-2.51v-.79A8.35,8.35,0,0,0,98.47,14.78ZM51.89,18.46c-.49-.85-.58-1.29-.58-3.19V8.5h3.77v6.63c0,1.69.46,2.36,1.66,2.36s1.87-.79,1.87-2.36V8.5h3.74V20H58.93l-.11-1.13a4.28,4.28,0,0,1-3.3,1.43A4,4,0,0,1,51.89,18.46ZM111.64,20V13.46c0-1.69-.49-2.39-1.66-2.39s-1.84.79-1.84,2.39V20H104.4V8.5h3.42l.11,1.28a4.26,4.26,0,0,1,6.9.27c.49.87.55,1.37.55,3.27V20ZM87,20V13.46c0-1.66-.53-2.39-1.67-2.39s-1.84.79-1.84,2.39V20H79.72V4h3.77V9.78a3.25,3.25,0,0,1,3.1-1.63,3.91,3.91,0,0,1,3.56,1.9c.5.87.56,1.34.56,3.27V20ZM76.1,20c-2.22,0-3.24-1-3.24-3.35V11H71.28V8.5h1.58V4.88H76.6V8.5h2.13V11H76.6v4.56c0,1.69.15,1.78,1.58,1.78h.73V20ZM64.74,20V11H63.11V8.5h1.63V8.15c0-3,1.14-4.15,4.06-4.15h2V6.54h-.62c-1.4,0-1.75.32-1.75,1.61V8.5H70.7V11H68.48v9H64.74ZM39.86,20V4h4V16.82h6.75V20H39.86"/></g></g></svg>