<svg xmlns="http://www.w3.org/2000/svg" viewBox="0 0 96 17.65"><defs><style>.cls-1{opacity:0.9;}.cls-2{fill:#003580;fill-rule:evenodd;}</style></defs><g id="Ebene_2" data-name="Ebene 2"><g id="Ebene_1-2" data-name="Ebene 1"><g class="cls-1"><path class="cls-2" d="M53,16.65l-.63-6.14H51L46.8,16.65h1.34l.8-1.28h2.74l0,1.28Zm9.37-5.11a.41.41,0,0,1,.4.56l-.2.71a.94.94,0,0,1-.89.52H60.13l.51-1.79Zm-2.69-1h3.21A1.2,1.2,0,0,1,64,12.12l-.19.7a1.7,1.7,0,0,1-1.44,1.06c.93.39,1,.61.84,1.49s0,1.23.06,1.28H62.14a1.63,1.63,0,0,1-.08-1.19c.2-1-.11-1.11-.39-1.11H59.84l-.64,2.3H57.94Zm6.87,0H67.8l-1.45,5.11h2.78l-.29,1h-4Zm6.85,6.14,1.74-6.14h1.58L78,15.12a2.33,2.33,0,0,1,.1.5l1.45-5.11h1.08l-1.74,6.14H77.26L76,12.05a2.78,2.78,0,0,1-.1-.54l-1.46,5.14Zm7.77,0,1.73-6.14H87.2l-.29,1H83.76l-.39,1.4H86l-.29,1H83.08l-.48,1.66h3.15l-.29,1ZM56.25,10.51h1.27l-1.74,6.14H54.51Zm15.34,0h1.27l-1.75,6.14H69.85Zm21.5,1,.29-1H90.47a1.83,1.83,0,0,0-1.85,1.21l-.27,1c-.19.67.19,1.27,1.13,1.27H90.9c.2,0,.48.12.32.68l-.07.25a1,1,0,0,1-.89.73H87.52l-.29,1h3a2,2,0,0,0,2-1.39l.21-.76a1.14,1.14,0,0,0-1.18-1.56H90c-.19,0-.46,0-.35-.43l.1-.35a.72.72,0,0,1,.75-.62ZM51.64,14.45l-.12-2.91a1.64,1.64,0,0,1,0-.32l-.19.32-1.83,2.91ZM61.11,1,59.37,7.15h1.27L61.25,5h1.91a2,2,0,0,0,2-1.23l.31-1.12A1.2,1.2,0,0,0,64.32,1ZM63.8,2a.42.42,0,0,1,.4.57L64,3.31a1,1,0,0,1-1,.77H61.5L62.08,2ZM75.44,1h1.27L75.26,6.12H78l-.29,1h-4ZM87.91,2l.29-1H85.3a1.84,1.84,0,0,0-1.86,1.2l-.27,1c-.19.66.18,1.27,1.13,1.27h1.42c.2,0,.48.12.32.67L86,5.38a1,1,0,0,1-.89.74H82.34l-.3,1h3a2,2,0,0,0,2-1.4L87.34,5a1.14,1.14,0,0,0-1.18-1.56H84.83c-.19,0-.46,0-.35-.43l.1-.35c.14-.49.4-.63.76-.63ZM80.5,1h1.26L80,7.15H78.76Zm10,0L88.75,7.15H90l.68-2.43h3.09l-.69,2.43h1.21L96,1H94.79L94,3.7H90.94L91.7,1ZM69.55,1h1.7c.89,0,1.94.82,1.64,1.86l-.74,2.58a2.5,2.5,0,0,1-2.36,1.69H68.45c-1.27,0-2.25-.94-1.91-2.15l.68-2.37A2.4,2.4,0,0,1,69.55,1Zm-1.3,5.1H70a1.31,1.31,0,0,0,1.17-1l.62-2.18a.69.69,0,0,0-.58-.9H69.42a1.29,1.29,0,0,0-1.14.88L67.69,5C67.47,5.77,67.91,6.12,68.25,6.12Zm-60.36,6h5.94a6.4,6.4,0,0,1-.89-3.25A8.78,8.78,0,0,1,21.67,0l29.9.14L50,5.58H44.13L40.74,17.52H34.39L37.78,5.58h-6a6.38,6.38,0,0,1,.89,3.25A8.77,8.77,0,0,1,24,17.65h-.16L0,17.52l1.54-5.44L4.93.14h6.35ZM19.2,8.83a3.63,3.63,0,0,1,1.06-2.59,3.79,3.79,0,0,1,1.18-.8,3.57,3.57,0,0,1,2.77,0,3.79,3.79,0,0,1,1.18.8,3.54,3.54,0,0,1,.79,1.19,3.71,3.71,0,0,1,.27,1.4,3.65,3.65,0,0,1-3.62,3.67,3.6,3.6,0,0,1-2.57-1.08A3.69,3.69,0,0,1,19.2,8.83Z"/></g></g></g></svg>