<svg xmlns="http://www.w3.org/2000/svg" viewBox="0 0 65.65 28.08"><defs><style>.cls-1{fill:#003580;fill-rule:evenodd;}</style></defs><g id="Ebene_2" data-name="Ebene 2"><g id="Ebene_1-2" data-name="Ebene 1"><path class="cls-1" d="M65.65,0H34.15V28.08h31.5ZM31.49,0H0V28.08H31.49Zm6.93,11.35L38,12.62h.89Zm2.2.35h-.53v1.94h.53Zm1,1c0-.35.15-.56.51-.56h.16v-.48h-.08a.62.62,0,0,0-.6.4V11.7h-.5v1.94h.52Zm4.85-1H46v1.94h.52ZM48,12c.36,0,.36.32.36.59h0v1h.52V12.36c0-.48-.17-.71-.68-.71a.75.75,0,0,0-.63.34h0v-.3H47v1.94h.52v-.91C47.52,12.59,47.56,12,48,12ZM50.17,12c-.28,0-.43.21-.44.49h.84C50.57,12.17,50.43,12,50.17,12Zm.66-.08a1.15,1.15,0,0,1,.25.88H49.72c0,.32.11.6.44.6a.35.35,0,0,0,.38-.29h.52c-.06.45-.47.62-.91.62-.63,0-.95-.33-.95-1s.31-1,1-1A.86.86,0,0,1,50.83,11.89Zm.54,1.18c0,.47.41.62.84.62s.86-.13.86-.63-.39-.53-.71-.62-.44-.11-.44-.27.16-.22.3-.22a.29.29,0,0,1,.3.26H53c0-.39-.4-.56-.81-.56s-.79.11-.79.59.35.48.66.57.46.13.46.32-.15.25-.32.25a.31.31,0,0,1-.34-.31Zm-4.88-2.14H46v.45h.52Zm-2.18,0h-.56v2.73h1.83v-.42H44.31Zm-3.69,0h-.53v.45h.53Zm-1.84,0h-.69L37,13.64h.58l.22-.61H39l.22.61h.64Zm4.41-3c-.27,0-.42.21-.43.5h.84C43.6,8.06,43.46,7.86,43.19,7.86ZM49,9.25c.37,0,.43-.33.43-.62h0V8.58h-.15c-.23,0-.58.05-.58.37A.28.28,0,0,0,49,9.25Zm4.9,0c.37,0,.47-.38.47-.69s-.1-.7-.47-.7-.47.38-.47.7S53.56,9.25,53.94,9.25Zm4.37,0c.36,0,.42-.33.42-.62h0V8.58h-.15c-.23,0-.58.05-.58.37A.29.29,0,0,0,58.31,9.25ZM52.55,6.82H52v.45h.53Zm-15.12,0H38V9.53h-.56Zm2.23.74a.63.63,0,0,1,.57.23.85.85,0,0,1,.11.49V9.53h-.52v-1c0-.26,0-.59-.36-.59s-.43.55-.43.69v.91h-.52V7.59H39v.3h0l.09-.11a.85.85,0,0,1,.25-.17A.72.72,0,0,1,39.66,7.54Zm1.91,2a.73.73,0,0,1-.42-.1A.47.47,0,0,1,41,9.05V8h-.36V7.59H41V7.18L41.52,7v.55H42V8h-.45v1c0,.22,0,.32.26.32H42v.32Zm1.61,0a1.08,1.08,0,0,1-.54-.12.87.87,0,0,1-.41-.87,1.11,1.11,0,0,1,.27-.82,1,1,0,0,1,.69-.23.86.86,0,0,1,.65.23h0a1.15,1.15,0,0,1,.26.88H42.75c0,.32.1.6.44.6A.34.34,0,0,0,43.56,9h.53a.63.63,0,0,1-.36.5A1.23,1.23,0,0,1,43.18,9.58Zm2.49-2v.22h0V8h-.16c-.36,0-.51.21-.51.57v.95h-.53V7.59H45L45,8a.78.78,0,0,1,.11-.18.57.57,0,0,1,.49-.23Zm1.54,0a.64.64,0,0,1,.57.23.85.85,0,0,1,.11.49V9.53h-.52v-1c0-.26,0-.59-.36-.59s-.43.55-.43.69v.91h-.53V7.59h.5l0,.3h0l.09-.11A.7.7,0,0,1,47.21,7.54Zm1.95,0a.8.8,0,0,1,.69.23.81.81,0,0,1,.13.52V9.53h-.45V9.46l0-.22h0a.55.55,0,0,1-.2.21.85.85,0,0,1-.45.11.75.75,0,0,1-.4-.11h0A.58.58,0,0,1,48.22,9c0-.56.64-.62,1.09-.62h.16V8.25c0-.2,0-.42-.31-.42a.28.28,0,0,0-.32.25h-.53a.5.5,0,0,1,.14-.31A1.06,1.06,0,0,1,49.16,7.54Zm2,0h.45V8h-.45v1c0,.22,0,.32.27.32h.18v.32l-.39,0a.71.71,0,0,1-.42-.1.44.44,0,0,1-.16-.41V8h-.36V7.59h.36V7.18L51.12,7Zm.9,0h.53V9.53H52Zm2.94,1a1,1,0,0,0-.3-.79A1,1,0,0,0,54,7.54a1.06,1.06,0,0,0-.71.23,1,1,0,0,0-.32.79.93.93,0,0,0,.47.9,1.15,1.15,0,0,0,.55.12,1.18,1.18,0,0,0,.55-.12A.93.93,0,0,0,55,8.56Zm.86,1h-.53V7.59h.5l0,.3h0l.1-.12a.7.7,0,0,1,.54-.23.65.65,0,0,1,.57.23.94.94,0,0,1,.11.49V9.53H56.6v-1c0-.26,0-.59-.35-.59s-.43.55-.43.69Zm2.61-2a.82.82,0,0,1,.69.23c.09,0,.13.48.13.52V9.53h-.46V9.46l0-.22h0a.69.69,0,0,1-.21.21.85.85,0,0,1-.45.11.69.69,0,0,1-.39-.11h0A.56.56,0,0,1,57.49,9c0-.56.64-.62,1.08-.62h.16V8.25c0-.2,0-.42-.3-.42a.3.3,0,0,0-.33.25h-.53a.46.46,0,0,1,.15-.31A1,1,0,0,1,58.43,7.54Zm1.29-.74h.52V9.53h-.52Zm-22-2h-.57c0,.65.55.87,1.11.87s1.1-.21,1.1-.84-.51-.71-1-.84-.61-.17-.61-.4a.46.46,0,0,1,.91,0h.55c0-.58-.43-.76-1-.76s-1.07.17-1.07.79.5.7.93.83.62.19.62.43-.25.39-.51.39A.51.51,0,0,1,37.71,4.79Zm3.5-.6.43,1.42h.63l.61-1.94h-.5L42,5.18l-.44-1.51h-.57l-.47,1.51-.39-1.51H39.5l.63,1.94h.63Zm2.5-1.29h-.52v.45h.52Zm0,.77h-.52V5.61h.52Zm.9,1.38h-.54c0,.48.45.61.84.61s.86-.12.86-.62-.38-.53-.71-.62-.43-.12-.43-.28.15-.22.29-.22a.3.3,0,0,1,.3.27h.52c0-.4-.4-.56-.81-.56s-.79.1-.79.58.35.48.66.57.46.14.46.32-.15.26-.32.26A.3.3,0,0,1,44.61,5.05Zm2,0H46c0,.48.45.61.84.61s.86-.12.86-.62-.39-.53-.71-.62-.44-.12-.44-.28.16-.22.3-.22a.3.3,0,0,1,.3.27h.52c0-.4-.4-.56-.82-.56s-.78.1-.78.58.35.48.66.57.46.14.46.32-.15.26-.32.26A.31.31,0,0,1,46.56,5.05ZM26.87,19.4v2.2h2.2v1.87h-2.2v2.2H25v-2.2H22.8V21.6H25V19.4ZM16.5,2.8H18V1.49H16.5ZM22,5.93c.85.3,1.48.7,1.52,1.7v.1a1.74,1.74,0,0,1-1.06,1.59h0a3,3,0,0,1-1.26.24,3.42,3.42,0,0,1-1.35-.24h0a1.63,1.63,0,0,1-1-1.6h1.45a.82.82,0,0,0,.94.8.72.72,0,0,0,.8-.68.46.46,0,0,0,0-.21c-.15-.34-.67-.5-1.4-.72l-.09,0a2.12,2.12,0,0,1-1.37-1,1.7,1.7,0,0,1-.19-.83A1.53,1.53,0,0,1,19.33,4a2.53,2.53,0,0,1,1.81-.62c1.24,0,2.21.52,2.23,1.71H21.93a.71.71,0,0,0-.82-.68c-.31,0-.74.14-.74.56s.49.62,1,.78Zm5.31,0c.85.3,1.49.7,1.53,1.7v.1a1.73,1.73,0,0,1-1.05,1.59h0a3,3,0,0,1-1.26.24,3.42,3.42,0,0,1-1.35-.24h0a1.63,1.63,0,0,1-1-1.6h1.45a.83.83,0,0,0,.94.8.72.72,0,0,0,.81-.68.46.46,0,0,0-.05-.21c-.15-.34-.67-.5-1.4-.72l-.09,0a2.12,2.12,0,0,1-1.37-1,1.7,1.7,0,0,1-.18-.83A1.53,1.53,0,0,1,24.65,4a2.5,2.5,0,0,1,1.8-.62c1.24,0,2.21.52,2.24,1.71H27.24a.7.7,0,0,0-.81-.68c-.32,0-.75.14-.75.56s.49.62,1,.78h0ZM16.5,3.53H18V9.39H16.5ZM8.36,7.63,7.9,5.93l-.67-2.4H8.72l.6,2.4L9.7,7.45l.44-1.52.71-2.4h1.47l.7,2.4.44,1.52.38-1.52.6-2.4h1.49l-.66,2.4-.47,1.7-.47,1.69,0,.07H12.74l0-.07-.49-1.69-.49-1.7-.16-.56-.16.56-.49,1.7-.49,1.69,0,.07H8.85l0-.07ZM4.08,6.88a2.09,2.09,0,0,1-1.36-1,1.68,1.68,0,0,1-.19-.82A1.55,1.55,0,0,1,3,4a2.53,2.53,0,0,1,1.81-.62C6,3.39,7,3.91,7,5.1H5.58a.71.71,0,0,0-.82-.68C4.45,4.42,4,4.56,4,5s.5.6,1.07.79l.12,0,.36.12c1,.37,1.5.76,1.53,1.7h0s0,.07,0,.1a1.71,1.71,0,0,1-1,1.59h0a3,3,0,0,1-1.25.25,3.51,3.51,0,0,1-1.36-.25,1.63,1.63,0,0,1-1-1.6H3.88a.82.82,0,0,0,.94.8.72.72,0,0,0,.8-.68.46.46,0,0,0,0-.21h0c-.15-.34-.67-.5-1.4-.72Z"/></g></g></svg>