<svg xmlns="http://www.w3.org/2000/svg" viewBox="0 0 105.88 7.86"><defs><style>.cls-1{fill:#003580;fill-rule:evenodd;}</style></defs><g id="Ebene_2" data-name="Ebene 2"><g id="Ebene_1-2" data-name="Ebene 1"><path class="cls-1" d="M1.6,7.65h2V2h1.6V.21H0V2H1.6ZM10,7.86a2.93,2.93,0,0,0,3.2-3.22V.21h-2V4.6c0,.46-.08,1.47-1.16,1.47S8.8,5.06,8.8,4.6V.21h-2V4.64A2.93,2.93,0,0,0,10,7.86Zm5.31-.21h2V5.19l1.53,2.46h2.47l-2-3A2.18,2.18,0,0,0,20.8,2.44,2.2,2.2,0,0,0,18.28.21h-3V7.65Zm2-4.09V1.85h.5c.72,0,1,.43,1,.85a.82.82,0,0,1-1,.86Zm5.53,4.09h2V4.45L27,7.65h2.54L26.69,3.81,29.45.21H27.06L24.87,3.33V.21h-2Zm8.14,0h2V.21H31ZM39.75.73A3.75,3.75,0,0,0,37.54,0,2.26,2.26,0,0,0,35,2.24a2.16,2.16,0,0,0,1.73,2.22c.63.19,1.39.25,1.39,1,0,.44-.34.62-.71.62a2.84,2.84,0,0,1-1.81-1l-1,1.58a4,4,0,0,0,2.72,1.19,2.42,2.42,0,0,0,2.73-2.44,2.16,2.16,0,0,0-1.59-2.3C37.79,2.87,37,2.89,37,2.27c0-.26.14-.63.76-.63A2,2,0,0,1,39,2.29ZM41.9,7.65h2v-3H46.4v3h2V.21h-2V2.89H43.93V.21h-2Zm12.83,0h2.18l.41-1.29h2.47l.41,1.29h2.18L59.79.21H57.32ZM58.56,2l.83,2.74H57.73Zm5.28,5.66h2V.21h-2Zm4.22,0h2V5.19l1.54,2.46h2.46l-2-3a2.18,2.18,0,0,0,1.53-2.23A2.19,2.19,0,0,0,71.07.21h-3V7.65Zm2-4.09V1.85h.5c.73,0,1,.43,1,.85s-.22.86-1,.86Zm5.53,4.09h4.22V5.86H77.66V.21h-2Zm5.9,0h2V.21h-2Zm4.22,0h2V3.18l2.69,4.47H92.5V.21h-2V4.6L87.88.21H85.74Zm8.94,0H99V5.86H96.72V4.67h2.1V3h-2.1V2H99V.21H94.68ZM105.56.73A3.78,3.78,0,0,0,103.35,0a2.27,2.27,0,0,0-2.56,2.24,2.17,2.17,0,0,0,1.74,2.22c.63.19,1.39.25,1.39,1,0,.44-.35.62-.72.62a2.89,2.89,0,0,1-1.81-1l-1,1.58a4,4,0,0,0,2.72,1.19,2.42,2.42,0,0,0,2.73-2.44,2.16,2.16,0,0,0-1.59-2.3c-.69-.25-1.54-.23-1.54-.85,0-.26.15-.63.76-.63a2,2,0,0,1,1.32.65Z"/></g></g></svg>