<svg xmlns="http://www.w3.org/2000/svg" viewBox="0 0 61.56 58.46"><defs><style>.cls-1{fill:#003580;fill-rule:evenodd;}</style></defs><g id="Ebene_2" data-name="Ebene 2"><g id="Ebene_1-2" data-name="Ebene 1"><path class="cls-1" d="M22.73,0a2.41,2.41,0,0,1,1.95,1.19A6.72,6.72,0,0,1,25,2.39a1.67,1.67,0,0,1,0,.32A3,3,0,0,1,24.68,4a2.56,2.56,0,0,1-.52,1c-.43.47-.73.61-.86.77s-.49.49-.62.68a14.38,14.38,0,0,0-.82,1.38,5.24,5.24,0,0,1-.72,1.71,2.74,2.74,0,0,0-.56.88,4.29,4.29,0,0,1-.34,1,17.8,17.8,0,0,0-1,1.58,10.66,10.66,0,0,0-.52,1.75c-.21.71-.7,1-.77,1.73,0,.34,0,.55,0,.9-.12,1-.85,1.43-1.37,2.36a2.39,2.39,0,0,0-.26,1A8.1,8.1,0,0,1,15.94,22a15.84,15.84,0,0,0-.45,2.36c-.11.61-.18.95-.28,1.55-.05.32-.24.47-.24.8V27c0,.21-.13.31-.14.53,0,.47-.13.73-.19,1.2a47.05,47.05,0,0,1-1.34,6c-.2.84-.2,1.34-.39,2.17a9,9,0,0,0-.33,1.61c0,.51,0,.79-.07,1.3s0,.92,0,1.5a6.38,6.38,0,0,1-.07.87c-.24,1.9-.66,3.3-.7,4.89v1l-.16,1.52v.25a1.64,1.64,0,0,1-1.45,1.59c-1,0-1.28-1-1.44-2-.1-.64-.2-1-.29-1.65,0-.36-.23-.52-.31-.88,0-.12,0-.2,0-.31-.22-1-.44-2-.68-3s-.5-2.71-.54-2.75a6.14,6.14,0,0,1-.23-1.41,7,7,0,0,0-.21-1c0-.2,0-.31,0-.5-.09-.54-.12-.85-.24-1.37S6,35.81,6,35.27v-.21c-.06-.93-.36-2-.52-3.31-.08-.58,0-.93-.1-1.51s-.08-1.1-.3-1.19-.4.32-.51.55c-.24.49-.39.76-.59,1.27-.29.74-.39,1.17-.73,1.89S2.7,34,2.36,34.85c-.26.64-.68,1.21-1.29,1.23A1.2,1.2,0,0,1,0,35a6.62,6.62,0,0,1,.43-1.93,18.39,18.39,0,0,0,.64-1.89c.17-.63.27-.81.45-1.48.22-.88.56-1.46.8-2.33s.56-1.49.89-2.5c.16-.47.27-.81.4-1.3.06-.23.3-.91.45-1.51a6.66,6.66,0,0,1,.32-1.19,1.25,1.25,0,0,1,1.13-.46,1.41,1.41,0,0,1,1.6,1.44,12.28,12.28,0,0,0,0,2c0,.43.07.26.14.69.26,1.66.37,1.87.51,3.19.16.75.28,2.12.28,2.12a11.08,11.08,0,0,0,.32,2c.11.51,0,.71.18,1.51A11.29,11.29,0,0,1,8.82,35c0,.27.09.79.14,1s.07.62.2,1.28a11.58,11.58,0,0,0,.31,1.3c0,.13.12.27.26.27s.23-.19.32-.35a9.27,9.27,0,0,0,.45-1.41A9.22,9.22,0,0,0,11,35.29c.19-.79.37-2.27.73-3.69s.49-2.26.77-3.71c.19-1,.39-1.6.56-2.54a3.79,3.79,0,0,0,.23-1.15c0-.27.12-.43.17-.71.19-1,.36-1.69.45-2.53v-.24a4,4,0,0,1,.32-1,7.31,7.31,0,0,1,.85-1.7,10.06,10.06,0,0,0,.85-2.69,3.94,3.94,0,0,0,.37-1.1,2.12,2.12,0,0,0,.26-.75c.13-.15.71-2.57,1.11-3.54A5.94,5.94,0,0,1,18,9c.1-.32.67-1.78.93-2.67a18,18,0,0,1,.45-1.86,10.24,10.24,0,0,0,.59-2,4.73,4.73,0,0,1,.64-1.08A2.65,2.65,0,0,1,21.89.25,2.19,2.19,0,0,1,22.73,0ZM42,11.89a1.34,1.34,0,0,1,1.43,1.21,1.43,1.43,0,0,1-.33.9c-.2.32-.12.86-1.22,1a1.47,1.47,0,0,1-1.29-1.41A1.55,1.55,0,0,1,42,11.89Zm7.14,2.47c1,0,1.51,1,1.48,2.08,0,.1,0,.16,0,.26,0,.28,0,.43,0,.71s-.08.95-.08.95c0,.53-.17.82-.17,1.36,0,.15,0,.24,0,.39,0,.3,0,.47-.07.78-.06.75.45.8.61,1.14.36.17.54.48,1,.48a5.59,5.59,0,0,0,.93-.29c.75-.34,1.19-.52,1.91-.9,1.12-.59,1.58-1.07,2.68-1.75a4.13,4.13,0,0,1,2.25-.92,1.84,1.84,0,0,1,1.58,1,2.53,2.53,0,0,1,.23.86c0,.11.05.17.05.29a3,3,0,0,1,0,.42,3.9,3.9,0,0,1-.21,1.18c-.18.45-.48.61-.88.88a2.18,2.18,0,0,1-1.35.44h-.28c-.38,0-.55-.12-.93-.12a3.24,3.24,0,0,0-1.51.51c-.63.32-1.36.73-1.58.84-.62.29-1.9,1-3.07,1.67-2.4,1.43-4.06,2.2-6.39,3.74a19.65,19.65,0,0,1-2.1,1.4c-.59.31-1,.37-1.56.73a9.91,9.91,0,0,0-2.24,1.84,17,17,0,0,1-2.51,2,7.55,7.55,0,0,0-2.22,1.79,2,2,0,0,0-.73,1.3l.18,2.24c0,.43-.2.71-.17,1.21l0,1.58c0,.59.2.66.2,1.15l0,.63c0,.75.29,1.13.3,1.87a13.58,13.58,0,0,0,0,1.92A7.79,7.79,0,0,0,34.89,52a5.38,5.38,0,0,0,.32,1.33c.34.73.49,1.14.85,1.87a2.94,2.94,0,0,1,.4,1.43c0,1.06-.85,1.72-2,1.84a2.79,2.79,0,0,1-1.33-.22,1.75,1.75,0,0,1-.59-1.41A12.07,12.07,0,0,0,32.41,55a3,3,0,0,0-.2-1,8.28,8.28,0,0,1-.4-2.2c0-1.12.07-1.75.07-2.88-.05-.74-.11-1.16-.2-1.9s-.23-1.15-.32-1.88c-.15-1.23-.15-1.91-.22-3.15,0-.3,0-.46-.05-.76s-.17-.55-.41-.56c-.51,0-.73.38-1.17.63a7.21,7.21,0,0,0-1.45,1.14,14,14,0,0,0-2.33,2.13,15.21,15.21,0,0,1-1.44,1.56c-.49.44-.82.65-1.29,1.11a5.21,5.21,0,0,0-.83,1.14,4.22,4.22,0,0,1-.9.89A16.41,16.41,0,0,0,18,52.56c-.48.62-.84.71-1,.91,0,0-.58.49-.78.69s-.69.67-.93.86c-.52.42-.72.8-1.22,1.25a4.32,4.32,0,0,1-1.68,1.06,2.31,2.31,0,0,1-.84.24,1.38,1.38,0,0,1-1.27-1.47c0-.48.24-.66.52-1a9,9,0,0,1,1.6-1.72c1.13-1,1.53-1.84,2.79-2.67.44-.29,1.53-.9,1.83-1.13a7.78,7.78,0,0,0,1.36-1.33c.18-.22.37-.28.54-.51a6,6,0,0,1,.45-.67,7.84,7.84,0,0,1,1.42-1.13c.75-.52,1.18-.76,1.89-1.34a6.57,6.57,0,0,0,1.13-1.28,11,11,0,0,1,2.6-2,5.1,5.1,0,0,0,1-1.15,13.2,13.2,0,0,1,1.58-1.75c.46-.41.74-.61,1.2-1,.8-.69,1.08-.44,1.06-1.49,0-.19.05-.44-.22-.42s-.32.23-.51.4a1.46,1.46,0,0,1-1.16.51,2.4,2.4,0,0,1-1.78-1,12.16,12.16,0,0,1-.81-3s0-.75,0-1.18A5.68,5.68,0,0,1,27.36,29a19.11,19.11,0,0,0,.57-2.78A9.76,9.76,0,0,1,28.39,25a5,5,0,0,1,.66-1.49c.64-.91,1-1.95,2.11-1.94a1.12,1.12,0,0,1,.59.17c.15.07.31.1.4.24s0,.23.12.32a1,1,0,0,1,.3.83,4,4,0,0,1,0,.49c-.08.75-.54,1.05-1,1.65a4.79,4.79,0,0,0-.86,1.44,7.84,7.84,0,0,0-.41,1.72c-.14.7-.26,1.32-.31,1.8,0,.15,0,.28,0,.44s.13.5.31.5.52-.33.62-.59A13.56,13.56,0,0,0,31.41,29a9.42,9.42,0,0,1,.72-2.06,17,17,0,0,0,.74-2.33c.31-.94.57-1.8,1.56-1.8a1.33,1.33,0,0,1,.79.17A1.66,1.66,0,0,1,36,24.61c0,.21,0,.34,0,.56-.23,2.11-.75,3.25-.93,5.39,0,.3,0,.47,0,.78a12.32,12.32,0,0,0-.17,1.36,1.78,1.78,0,0,0,.12.6c0,.12.08.26.21.26s.35-.18.55-.31c.4-.25.67-.33,1.06-.59.61-.4,1-.56,1.59-1s1.21-1.11,1.83-1.51.68-.29,1.33-.7,1.27-.76,2-1.32c.45-.34.47-.58,1.11-.95s1-.54,1.59-.92a7.07,7.07,0,0,1,.82-.52c.29-.13.57-.26.57-.57s-.2-.5-.36-.77A1.69,1.69,0,0,1,47,23.36a4.15,4.15,0,0,1,0-.61,12.4,12.4,0,0,0,.48-2.22l0-.29s-.07-.07-.12-.07-.2.16-.27.25c-.23.26-.36.43-.58.7a3.92,3.92,0,0,0-.69.94c-.11.23-.09.38-.19.62-.2.51-.34.81-.51,1.33-.47,1.4-.44,3.25-1.91,3.25a1.76,1.76,0,0,1-1.77-1.74A4.85,4.85,0,0,1,41.72,24c.24-.2.05-.74.19-.86a2.25,2.25,0,0,0,.16-1.07c0-.22.06-.36.06-.58l0-.36a6,6,0,0,1,.18-1,3.91,3.91,0,0,1,.4-1.23c0-.14,0-.2.07-.33.26-.73.2-1.17.92-1.77.26-.25.42-.53.78-.53.83,0,1.07.48,1.28.46.39,0,.52-.34.8-.61C47.43,15.34,48,14.36,49.16,14.36Zm-9.35,5.16c.8,0,1.59.29,1.57,1.31,0,.61-.33.9-.54,1.46a8.58,8.58,0,0,0-.21,1.25c-.19.71-.49.64-.45,1.84,0,.91,0,1.42,0,2.32a1.58,1.58,0,0,1-1.62,1.5A1.77,1.77,0,0,1,37,27.56c0-.54.16-.84.19-1.38s0-.73,0-1.2a7,7,0,0,1,.52-2c.12-.38.11-.62.26-1a6.26,6.26,0,0,1,.58-1.37A1.32,1.32,0,0,1,39.81,19.52ZM18.08,22.33a1.22,1.22,0,0,1,1.08.65,2.06,2.06,0,0,1,.45,1.14c0,.08,0,.13,0,.21a1.48,1.48,0,0,1-1.5,1.46,1.55,1.55,0,0,1-1.41-1.55c0-.29.17-.47.2-.78A1.15,1.15,0,0,1,18.08,22.33Zm6,2.21c.84,0,1.21.69,1.63,1.42s.85,1.1.85,1.91S26,29.09,25.39,29.6c-.35.3-.66.24-1.13.38-.21.06-.26.35-.28.61-.05.47-.09.74-.1,1.21,0,.78,0,1.23,0,2a3.37,3.37,0,0,1-.21,1.11,1.62,1.62,0,0,1-1.54.92,1.46,1.46,0,0,1-1.49-1.46c0-.24.1-1,.09-1.59,0-.95-.1-1.49-.1-2.44,0-.47.21-.73.21-1.21v-.4c0-.34.33-.66.69-.94a3.2,3.2,0,0,0,1-1.47C22.89,25.33,23.11,24.54,24.07,24.54Zm-6,3.75a1.08,1.08,0,0,1,.93.48,2.48,2.48,0,0,1,.63,1.56,2.19,2.19,0,0,1,0,.36A2.63,2.63,0,0,1,19.1,32a5.93,5.93,0,0,0-.32.83,4.25,4.25,0,0,0-.45,1.56c0,.94,0,1.47,0,2.41,0,.47.12.73.12,1.2a1.77,1.77,0,0,1-1.54,2c-1,0-1.9-1.28-1.85-2.63a8.72,8.72,0,0,1,.19-1.23,15.79,15.79,0,0,1,.4-1.91,2.8,2.8,0,0,0,.21-.72l.11-.77c0-.31.12-.38.18-.69a9.08,9.08,0,0,1,.39-1.68c.13-.39.31-.57.45-1C17.17,28.77,17.5,28.29,18.09,28.29Z"/></g></g></svg>